<svg xmlns="http://www.w3.org/2000/svg" width="1200" height="720" viewBox="0 0 1200 720" role="img" aria-labelledby="title description" data-direction-id="operational-saas-console" data-theme-id="theme-a1ba3ddb542f" data-content-pattern="operational-saas-console" data-layout-archetype="app-shell">
  <title id="title">Operational SaaS Console draft direction preview</title>
  <desc id="description">Redesign an existing local-first desktop web workbench for solo AI short-drama production. Use a two-level info…</desc>
  <defs>
    <marker id="arrow" viewBox="0 0 10 10" refX="8" refY="5" markerWidth="5" markerHeight="5" orient="auto-start-reverse"><path d="M 0 0 L 10 5 L 0 10 z" fill="#E8A839"/></marker>
    <pattern id="grid" width="24" height="24" patternUnits="userSpaceOnUse"><path d="M 24 0 L 0 0 0 24" fill="none" stroke="#303545" stroke-width="1" opacity="0.18"/></pattern>
  </defs>
  <rect width="1200" height="720" fill="#0E1015"/>
  <rect width="1200" height="720" fill="url(#grid)"/>
  <text x="42" y="45" fill="#9CA3AF" font-family="Inter, ui-sans-serif, system-ui, sans-serif" font-size="11" font-weight="750" text-anchor="start">AI UI STYLE DIRECTION</text>
  <text x="1158" y="45" fill="#8B5CF6" font-family="Inter, ui-sans-serif, system-ui, sans-serif" font-size="11" font-weight="750" text-anchor="end">DRAFT / WIREFRAME</text>
  <text x="42" y="92" fill="#F4F4F5" font-family="Inter, ui-sans-serif, system-ui, sans-serif" font-size="30" font-weight="780" text-anchor="start">Operational SaaS Console</text>
  <text x="42" y="124" fill="#9CA3AF" font-family="Inter, ui-sans-serif, system-ui, sans-serif" font-size="13" font-weight="450" text-anchor="start">Redesign an existing local-first desktop web workbench for solo AI short-drama production. Use a two-level info…</text>
  <g transform="translate(40 160)">
    <rect x="0" y="0" width="1120" height="520" rx="20" fill="#151821" stroke="#303545" />
    <g data-layout-signature="semantic-app-shell" data-pattern-variant="0"><g data-block="work-queue" data-role="primary" data-module-kind="data" transform="translate(250 24)"><rect x="0" y="0" width="846" height="250" rx="22" fill="#202431" stroke="#303545" /><text x="18" y="28" fill="#F4F4F5" font-family="Inter, ui-sans-serif, system-ui, sans-serif" font-size="10" font-weight="720" text-anchor="start">WORK QUEUE</text><circle cx="824" cy="22" r="7" fill="#8B5CF6" opacity="0.72"/><rect x="18" y="182.72" width="108.85714285714286" height="49.28" rx="5" fill="#303545" stroke="none" /><rect x="134.85714285714286" y="159.83999999999997" width="108.85714285714286" height="72.16000000000001" rx="5" fill="#303545" stroke="none" /><rect x="251.71428571428572" y="136.95999999999998" width="108.85714285714286" height="95.04" rx="5" fill="#303545" stroke="none" /><rect x="368.57142857142856" y="114.08" width="108.85714285714286" height="117.92" rx="5" fill="#303545" stroke="none" /><rect x="485.42857142857144" y="91.19999999999999" width="108.85714285714286" height="140.8" rx="5" fill="#303545" stroke="none" /><rect x="602.2857142857143" y="182.72" width="108.85714285714286" height="49.28" rx="5" fill="#303545" stroke="none" /><rect x="719.1428571428571" y="159.83999999999997" width="108.85714285714286" height="72.16000000000001" rx="5" fill="#8B5CF6" stroke="none" /></g><g data-block="navigation" data-role="secondary" data-module-kind="navigation" transform="translate(24 24)"><rect x="0" y="0" width="206" height="448" rx="16" fill="#151821" stroke="#303545" /><text x="18" y="28" fill="#9CA3AF" font-family="Inter, ui-sans-serif, system-ui, sans-serif" font-size="10" font-weight="720" text-anchor="start">NAVIGATION</text><path d="M164 28 L176 12 L188 28 Z" fill="#8B5CF6" opacity="0.72"/><circle cx="25" cy="42" r="5" fill="#303545"/><line x1="42" y1="42" x2="138" y2="42" stroke="#9CA3AF" stroke-width="6" stroke-linecap="round" opacity="0.58"/><circle cx="25" cy="76" r="5" fill="#8B5CF6"/><line x1="42" y1="76" x2="156" y2="76" stroke="#9CA3AF" stroke-width="6" stroke-linecap="round" opacity="0.58"/></g><g data-block="detail-panel" data-role="secondary" data-module-kind="text" transform="translate(250 294)"><rect x="0" y="0" width="520" height="178" rx="16" fill="#151821" stroke="#303545" /><text x="18" y="28" fill="#9CA3AF" font-family="Inter, ui-sans-serif, system-ui, sans-serif" font-size="10" font-weight="720" text-anchor="start">DETAIL PANEL</text><line x1="472" y1="15" x2="502" y2="15" stroke="#8B5CF6" stroke-width="4" stroke-linecap="round"/><line x1="480" y1="27" x2="502" y2="27" stroke="#8B5CF6" stroke-width="4" stroke-linecap="round"/><line x1="18" y1="56" x2="424.56" y2="56" stroke="#F4F4F5" stroke-width="8" stroke-linecap="round" opacity="0.48"/><line x1="18" y1="90.66666666666666" x2="298.71999999999997" y2="90.66666666666666" stroke="#9CA3AF" stroke-width="6" stroke-linecap="round" opacity="0.48"/><line x1="18" y1="125.33333333333333" x2="361.64" y2="125.33333333333333" stroke="#9CA3AF" stroke-width="6" stroke-linecap="round" opacity="0.48"/></g><g data-block="primary-action" data-role="supporting" data-module-kind="action" transform="translate(790 294)"><rect x="0" y="0" width="306" height="178" rx="16" fill="#151821" stroke="#303545" /><text x="18" y="28" fill="#9CA3AF" font-family="Inter, ui-sans-serif, system-ui, sans-serif" font-size="10" font-weight="720" text-anchor="start">PRIMARY ACTION</text><line x1="258" y1="15" x2="288" y2="15" stroke="#8B5CF6" stroke-width="4" stroke-linecap="round"/><line x1="266" y1="27" x2="288" y2="27" stroke="#8B5CF6" stroke-width="4" stroke-linecap="round"/><rect x="18" y="86" width="210" height="44" rx="22" fill="#8B5CF6" stroke="#8B5CF6" opacity="0.86"/><text x="123" y="114" fill="#151821" font-family="Inter, ui-sans-serif, system-ui, sans-serif" font-size="10" font-weight="750" text-anchor="middle">CONTINUE</text><line x1="242" y1="108" x2="280" y2="108" stroke="#8B5CF6" stroke-width="3" stroke-linecap="round"/></g></g>
  </g>
</svg>
